# xmcd CD database file
#
# Track frame offsets:
#	150
#	19020
#	39170
#	55685
#	76635
#	87865
#	101175
#	121805
#	150675
#	164827
#	183659
#	201451
#	215568
#	232360
#	249152
#	263707
#	279617
#	289609
#	302839
#	319031
#
# Disc length: 4546 seconds
#
# Revision: 0
# Processed by: cddbd v1.4PL0 Copyright (c) Steve Scherf et al.
# Submitted via: CDex 1.50beta10
#
DISCID=1911c014
DTITLE=Jitterbug Swing - Street Songs
DYEAR=2003
DGENRE=Blues
TTITLE0=Walking Blues
TTITLE1=Shake 'Em On Down
TTITLE2=Hard Time Killing Floor
TTITLE3=Georgia Skin Game
TTITLE4=Lamp Trimmed And Burning
TTITLE5=I Get The Blues When It Rains
TTITLE6=Poor Black Mattie
TTITLE7=John Henry
TTITLE8=Mule To Ride
TTITLE9=M and O Blues
TTITLE10=Moanin' The Blues
TTITLE11=Frankie And Albert
TTITLE12=Babe I Want You To Know
TTITLE13=Future Blues
TTITLE14=One Dime Blues
TTITLE15=Travellin' Light
TTITLE16=What A Difference A Day Makes
TTITLE17=Stackolee
TTITLE18=Gambling Bar Room Blues
TTITLE19=What'd I Say
EXTD=YEAR: 2003
EXTT0=
EXTT1=
EXTT2=
EXTT3=
EXTT4=
EXTT5=
EXTT6=
EXTT7=
EXTT8=
EXTT9=
EXTT10=
EXTT11=
EXTT12=
EXTT13=
EXTT14=
EXTT15=
EXTT16=
EXTT17=
EXTT18=
EXTT19=
PLAYORDER=
